# xmcd
#
# Track frame offsets:
#	150
#	20292
#	52012
#	73424
#	94570
#	119427
#	137072
#	160613
#	183921
#	214132
#	234690
#	259858
#
# Disc length: 3806 seconds
#
# Revision: 0
# Processed by: cddbd v1.5.2PL0 Copyright (c) Steve Scherf et al.
# Submitted via: EZCDAudioConverter 3.1.0.1
#
DISCID=aa0edc0c
DTITLE=Zoe Schwarz Blue Commotion  - I'll Be Yours Tonight Live
DYEAR=2015
DGENRE=Blues
TTITLE0=Your Sun Shines Rain
TTITLE1=Fine and Mellow
TTITLE2=Let Me Sing The Blues
TTITLE3=Smile
TTITLE4=Angel Of Mercy
TTITLE5=Liberated Woman
TTITLE6=We'll Find A Way
TTITLE7=Say It Isn't So
TTITLE8=I Believe In You
TTITLE9=I'll Do Anything
TTITLE10=Beatitudes
TTITLE11=Take Me Back
EXTD=
EXTT0=
EXTT1=
EXTT2=
EXTT3=
EXTT4=
EXTT5=
EXTT6=
EXTT7=
EXTT8=
EXTT9=
EXTT10=
EXTT11=
PLAYORDER=
